<svg xmlns="http://www.w3.org/2000/svg" xmlns:xlink="http://www.w3.org/1999/xlink" viewBox="0 0 1922 122.56"><defs><style>.cls-1{fill:none;}.cls-2{fill:#77c2ad;}.cls-3,.cls-5{fill:#fff;}.cls-3{opacity:0.26;}.cls-4{clip-path:url(#clip-path);}</style><clipPath id="clip-path"><path class="cls-1" d="M1,58.07l76.18,4.48a13945.17,13945.17,0,0,0,1768.2-8.46l75.37-5.16L1923,94l-1,18.87c-591.23,40.62-1329.41,45-1921,10l-1-31Z"/></clipPath></defs><g id="Calque_2" data-name="Calque 2"><g id="Calque_1-2" data-name="Calque 1"><rect class="cls-2" x="0.96" width="1920" height="100.9"/><path class="cls-3" d="M.79,54.05,340.15,82.31Q662.5,109.16,986,108.09c313.86-1,626.94-31.55,935.3-90h0L1922,95.9l-526,2c-369-5-429,2.08-730,5-205.79,2-462-20-666,3l.79-5.76Z"/><g class="cls-4"><rect class="cls-5" x="0.7" y="35.5" width="1920.91" height="82.4" transform="translate(-0.36 4.67) rotate(-0.28)"/></g></g></g></svg>