<svg xmlns="http://www.w3.org/2000/svg" viewBox="0 0 1905 547"><defs><style>.cls-1,.cls-3{fill:#fff;}.cls-2{fill:#76c2ad;}.cls-3{font-size:180px;font-family:Gotham-Black, Gotham Black;font-weight:800;}.cls-4{font-size:81px;font-family:Gotham-Light, Gotham Light;font-weight:300;}.cls-5{letter-spacing:-0.02em;}.cls-6{letter-spacing:-0.03em;}.cls-7{letter-spacing:0em;}.cls-8{letter-spacing:-0.01em;}</style></defs><g id="Calque_2" data-name="Calque 2"><g id="Calque_1-2" data-name="Calque 1"><path class="cls-1" d="M432,0,74,30C33.15,30,0,69.24,0,117.65v221.7c0,42.59,25.66,78.08,59.68,86,1.9,11.15,3.57,29.14-1.85,42.74-1.07,2.7,1.45,5.4,3.6,3.83,15.25-11.14,39.24-30.86,43.83-47.54L432,397c40.89,0,74-35.24,74-83.65V91.65C506,43.24,472.85,0,432,0Z"/><path class="cls-2" d="M424.49,175.55a34.22,34.22,0,0,0-5.68-14.6,29.28,29.28,0,0,0-3.73-4.3.14.14,0,0,0,0-.06l-.05,0c-.63-.6-1.27-1.18-2-1.72a29.5,29.5,0,0,0-7.09-4.13,32.16,32.16,0,0,0-7.54-2.05,36.88,36.88,0,0,0-3.73-.39c-1.23,0-2.46-.09-3.66,0a49.16,49.16,0,0,0-13.74,2.62c-1.08.4-2.16.75-3.2,1.19S372,153,371,153.52s-2,1-3,1.57-1.95,1.16-2.9,1.81c1.15.15,2.27.22,3.38.3s2.22.18,3.31.23c2.18.16,4.32.29,6.43.47s4.17.39,6.18.64c1,.18,2,.26,3,.46l1.45.25,1.42.29a42.08,42.08,0,0,1,5.37,1.48,28,28,0,0,1,4.67,2.06c.33.18.65.38,1,.57-2.36,1.25-4.68,2.52-7.05,3.7-1.69.89-3.38,1.76-5,2.66l-5,2.57c-3.3,1.75-6.66,3.36-9.93,5-13.16,6.6-26.18,12.48-39.09,17.83a428.42,428.42,0,0,1-78.36,23.78c-13.32,2.64-26.8,4.74-40.52,6.25s-27.65,2.54-41.86,3.19-28.67.89-43.49.87q-11.11,0-22.54-.17l-2.08,0a27.07,27.07,0,0,1,2.54-1.17,41.8,41.8,0,0,1,5.1-1.56,83.14,83.14,0,0,1,11.65-1.72c2.06-.18,4.15-.31,6.29-.46,1.06-.05,2.15-.15,3.24-.22s2.19-.14,3.31-.28c-.91-.65-1.86-1.23-2.81-1.82s-1.94-1.08-2.94-1.58-2-.94-3-1.4-2.09-.8-3.14-1.2-2.15-.68-3.24-1-2.21-.56-3.34-.76a41.09,41.09,0,0,0-7-.78,37.7,37.7,0,0,0-7.35.57,30.92,30.92,0,0,0-7.43,2.39,27.75,27.75,0,0,0-6.8,4.49A28.6,28.6,0,0,0,86.17,229l-1.24,0c.26.26.53.51.8.76a36.11,36.11,0,0,0-4.52,13.74,50,50,0,0,0,.31,14,61.25,61.25,0,0,0,3.58,12.95,58.15,58.15,0,0,0,2.82,6,38,38,0,0,0,3.61,5.62c.21-4.47.28-8.72.45-12.9s.36-8.23.74-12.15a79,79,0,0,1,1.81-11.19A36.91,36.91,0,0,1,97,239c2.28,1.64,4.61,3.21,7,4.73a190.4,190.4,0,0,0,21,11.5,212.87,212.87,0,0,0,22.21,9,226.15,226.15,0,0,0,23.14,6.54,234.28,234.28,0,0,0,97,1.3c32.29-6.39,63.43-20.07,89.29-40A196.32,196.32,0,0,0,375,216l2.16-2.12c.72-.71,1.4-1.47,2.09-2.2,1.39-1.48,2.77-2.93,4.12-4.43s2.65-3,4-4.57,2.6-3,3.81-4.66c2.45-3.19,4.89-6.35,7.11-9.69,1.12-1.66,2.25-3.3,3.32-5s2.09-3.41,3.12-5.12c1.35-2.23,2.6-4.54,3.81-6.87a32.17,32.17,0,0,1,2.77,7,67,67,0,0,1,2,11.29c.39,4,.6,8.13.7,12.37l.27,13.15a38.57,38.57,0,0,0,3.71-5.72,56.53,56.53,0,0,0,2.89-6.15A59.46,59.46,0,0,0,424.41,190,47.93,47.93,0,0,0,424.49,175.55Z"/><text class="cls-3" transform="translate(589.71 203)">CITRON VERT<tspan class="cls-4"><tspan class="cls-5" x="28.25" y="97.2">A</tspan><tspan x="90.22" y="97.2">ctualités, </tspan><tspan class="cls-6" x="468.24" y="97.2">vo</tspan><tspan class="cls-5" x="562.36" y="97.2">y</tspan><tspan class="cls-7" x="607.96" y="97.2">ages, high-</tspan><tspan class="cls-8" x="1044.38" y="97.2">t</tspan><tspan x="1075.57" y="97.2">ech..</tspan></tspan></text></g></g></svg>